<?xml version="1.0" encoding="UTF-8"?>
<svg id="logo" xmlns="http://www.w3.org/2000/svg" viewBox="0 0 32 32">
  <rect x="0" width="32" height="32" style="fill: var(--ifm-color-primary); stroke-width: 0px;"/>
  <path d="M16.87,27.41c-.47.96-1.37,1.59-2.42,1.89-1.6.37-3.14.16-4.28-.53-.76-.47-1.36-1.19-1.76-2.02l2.43-1.49s.09.12.17.27c.31.52.58.89,1.1,1.15.52.18,1.65.29,2.09-.62.27-.46.18-1.97.18-3.62v-7.74h3.01c0,2.75.02,5.5,0,8.24,0,1.68.15,3.2-.53,4.46Z" style="fill: #fff; stroke-width: 0px;"/>
  <path d="M29.28,26.56c-1.04,3.56-6.84,3.67-9.16,1.32-.49-.55-.8-.84-1.09-1.48q1.23-.71,2.43-1.4c.65,1,1.25,1.55,2.34,1.78,1.47.18,2.95-.33,2.62-1.89-.34-1.27-3.01-1.58-4.82-2.95-1.84-1.24-2.28-4.25-.76-5.96.5-.64,1.37-1.11,2.27-1.34l.94-.12c1.81-.04,2.94.44,3.77,1.37.23.23.42.49.77,1.03-.96.61-.96.61-2.34,1.5-.3-.64-.78-1.03-1.3-1.21-.8-.24-1.82.02-2.03.87-.07.26-.06.5.06.94.33.74,1.42,1.06,2.4,1.51,2.82,1.14,3.77,2.37,4.01,3.83.23,1.26-.05,2.07-.1,2.19Z" style="fill: #fff; stroke-width: 0px;"/>
</svg>