<?xml version="1.0" encoding="UTF-8"?>
<svg id="logo" xmlns="http://www.w3.org/2000/svg" viewBox="0 0 32 32">
  <path d="M16,32c-.44,0-.85-.12-1.24-.32l-3.92-2.32c-.59-.32-.29-.44-.12-.5.8-.26.94-.32,1.77-.79.09-.06.21-.03.29.03l3,1.79c.12.06.27.06.35,0l11.75-6.79c.12-.06.18-.18.18-.32v-13.55c0-.15-.06-.26-.18-.32l-11.75-6.76c-.12-.06-.27-.06-.35,0l-11.75,6.76c-.12.06-.18.21-.18.32v13.55c0,.12.06.26.18.32l3.21,1.85c1.74.88,2.83-.15,2.83-1.18v-13.38c0-.18.15-.35.35-.35h1.5c.18,0,.35.15.35.35v13.38c0,2.32-1.27,3.67-3.48,3.67-.68,0-1.21,0-2.71-.74l-3.09-1.76c-.77-.44-1.24-1.26-1.24-2.15v-13.55c0-.88.47-1.7,1.24-2.15L14.76.31c.74-.41,1.74-.41,2.47,0l11.75,6.79c.77.44,1.24,1.26,1.24,2.15v13.55c0,.88-.47,1.7-1.24,2.15l-11.75,6.79c-.35.15-.8.26-1.24.26Z" style="fill: var(--ifm-color-primary); stroke-width: 0px;"/>
  <path d="M19.65,22.68c-5.15,0-6.21-2.35-6.21-4.35,0-.18.15-.35.35-.35h1.53c.18,0,.32.12.32.29.24,1.56.91,2.32,4.03,2.32,2.47,0,3.53-.56,3.53-1.88,0-.76-.29-1.32-4.15-1.71-3.21-.32-5.21-1.03-5.21-3.59,0-2.38,2-3.79,5.36-3.79,3.77,0,5.62,1.29,5.86,4.12,0,.09-.03.18-.09.26-.06.06-.15.12-.24.12h-1.56c-.16,0-.29-.11-.32-.26-.35-1.62-1.27-2.15-3.68-2.15-2.71,0-3.03.94-3.03,1.65,0,.85.38,1.12,4.03,1.59,3.62.47,5.33,1.15,5.33,3.67s-2.15,4.06-5.86,4.06Z" style="fill: var(--ifm-color-primary); stroke-width: 0px;"/>
</svg>