<?xml version="1.0" encoding="UTF-8"?>
<svg id="logo" xmlns="http://www.w3.org/2000/svg" viewBox="0 0 32 32">
  <defs>
    <style>
      .cls-1 {
        fill: var(--ifm-color-primary);
        stroke-width: 0px;
      }
    </style>
  </defs>
  <path class="cls-1" d="M16,19.2c1.61,0,2.91-1.3,2.91-2.91s-1.3-2.91-2.91-2.91-2.91,1.3-2.91,2.91,1.3,2.91,2.91,2.91Z"/>
  <path class="cls-1" d="M27.07,11.48c-.56-.2-1.15-.41-1.76-.59.15-.61.28-1.23.38-1.81.54-3.37-.05-5.75-1.69-6.67-.49-.28-1.02-.41-1.64-.41-1.79,0-4.06,1.33-6.36,3.55-2.3-2.22-4.58-3.55-6.36-3.55-.61,0-1.15.13-1.64.41-1.64.95-2.22,3.32-1.69,6.67.1.59.23,1.2.38,1.81-.61.18-1.2.36-1.76.59-3.19,1.23-4.93,2.91-4.93,4.81s1.76,3.58,4.93,4.81c.56.2,1.15.41,1.76.59-.15.61-.28,1.23-.38,1.81-.54,3.37.05,5.75,1.69,6.67.49.28,1.02.41,1.64.41,1.81,0,4.09-1.33,6.36-3.55,2.3,2.22,4.58,3.55,6.36,3.55.61,0,1.15-.13,1.64-.41,1.64-.95,2.22-3.32,1.69-6.67-.1-.59-.23-1.2-.38-1.81.61-.18,1.2-.36,1.76-.59,3.19-1.23,4.93-2.91,4.93-4.81s-1.74-3.58-4.93-4.81h0ZM23.28,3.69c1.05.61,1.41,2.5.97,5.19-.08.54-.2,1.1-.36,1.69-1.33-.31-2.73-.51-4.22-.64-.87-1.23-1.76-2.33-2.66-3.32,1.89-1.87,3.81-3.14,5.37-3.14.33,0,.64.08.89.23h0ZM20.42,18.84c-.46.82-1,1.64-1.56,2.45-.95.08-1.89.1-2.86.1s-1.94-.03-2.86-.1c-.56-.82-1.07-1.64-1.53-2.45-.49-.84-.95-1.71-1.35-2.56.41-.84.87-1.71,1.35-2.56.46-.82,1-1.64,1.56-2.45.95-.08,1.89-.1,2.86-.1s1.94.03,2.86.1c.56.82,1.07,1.64,1.53,2.45.49.84.95,1.71,1.35,2.56-.43.84-.87,1.69-1.35,2.56ZM22.54,18c.38.89.69,1.76.97,2.63-.87.2-1.79.36-2.76.49.31-.49.64-1,.92-1.53.31-.54.59-1.07.87-1.58ZM16,24.93c-.61-.66-1.2-1.38-1.76-2.12.59.03,1.18.05,1.76.05s1.18-.03,1.76-.05c-.56.74-1.15,1.46-1.76,2.12ZM11.25,21.09c-.97-.13-1.89-.28-2.76-.49.28-.84.59-1.74.97-2.63.28.51.56,1.05.87,1.56.31.56.61,1.05.92,1.56h0ZM9.46,14.58c-.38-.89-.69-1.76-.97-2.63.87-.2,1.79-.36,2.76-.49-.31.49-.64,1-.92,1.53-.31.54-.59,1.07-.87,1.58h0ZM16,7.65c.61.66,1.2,1.38,1.76,2.12-.59-.03-1.18-.05-1.76-.05s-1.18.03-1.76.05c.56-.74,1.15-1.46,1.76-2.12ZM21.67,13.02l-.92-1.53c.97.13,1.89.28,2.76.49-.28.84-.59,1.74-.97,2.63-.28-.54-.56-1.07-.87-1.58ZM7.74,8.88c-.43-2.68-.08-4.58.97-5.19.26-.15.56-.23.89-.23,1.53,0,3.45,1.25,5.37,3.14-.89.97-1.79,2.1-2.66,3.32-1.48.13-2.89.36-4.22.64-.15-.59-.26-1.15-.36-1.69h0ZM1.43,16.29c0-1.2,1.46-2.48,4.01-3.42.51-.2,1.07-.38,1.64-.54.41,1.28.92,2.63,1.53,3.99-.61,1.35-1.15,2.68-1.53,3.96-3.53-1.02-5.65-2.56-5.65-3.99ZM8.72,28.89c-1.05-.61-1.41-2.5-.97-5.19.08-.54.2-1.1.36-1.69,1.33.31,2.73.51,4.22.64.87,1.23,1.76,2.33,2.66,3.32-1.89,1.87-3.81,3.14-5.37,3.14-.33,0-.64-.08-.89-.23ZM24.26,23.7c.43,2.68.08,4.58-.97,5.19-.26.15-.56.23-.89.23-1.53,0-3.45-1.25-5.37-3.14.89-.97,1.79-2.1,2.66-3.32,1.48-.13,2.89-.36,4.22-.64.15.59.26,1.15.36,1.69h0ZM26.56,19.71c-.51.2-1.07.38-1.64.54-.41-1.28-.92-2.63-1.53-3.99.61-1.35,1.15-2.68,1.53-3.96,3.53,1.02,5.65,2.56,5.65,3.99,0,1.2-1.48,2.48-4.01,3.42Z"/>
</svg>