<?xml version="1.0" encoding="UTF-8"?>
<svg id="logo" xmlns="http://www.w3.org/2000/svg" viewBox="0 0 32 32">
  <rect width="32" height="32" rx="4" ry="4" style="fill: var(--ifm-color-primary); stroke-width: 0px;"/>
  <rect x="4" y="5" width="8" height="2" rx="1" ry="1" style="fill: #fff; stroke-width: 0px;"/>
  <rect x="13" y="5" width="4" height="2" rx="1" ry="1" style="fill: #fff; stroke-width: 0px;"/>
  <rect x="9" y="15" width="5" height="2" rx="1" ry="1" style="fill: #fff; opacity: .5; stroke-width: 0px;"/>
  <rect x="15" y="15" width="7" height="2" rx="1" ry="1" style="fill: #fff; stroke-width: 0px;"/>
  <rect x="9" y="20" width="7" height="2" rx="1" ry="1" style="fill: #fff; stroke-width: 0px;"/>
  <rect x="23" y="10" width="4" height="2" rx="1" ry="1" style="fill: #fff; stroke-width: 0px;"/>
  <rect x="17" y="20" width="7" height="2" rx="1" ry="1" style="fill: #fff; opacity: .5; stroke-width: 0px;"/>
  <rect x="18" y="5" width="8" height="2" rx="1" ry="1" style="fill: #fff; opacity: .5; stroke-width: 0px;"/>
  <rect x="9" y="25" width="8" height="2" rx="1" ry="1" style="fill: #fff; stroke-width: 0px;"/>
  <rect x="4" y="25" width="4" height="2" rx="1" ry="1" style="fill: #fff; stroke-width: 0px;"/>
  <rect x="18" y="10" width="4" height="2" rx="1" ry="1" style="fill: #fff; opacity: .5; stroke-width: 0px;"/>
  <rect x="4" y="10" width="4" height="2" rx="1" ry="1" style="fill: #fff; stroke-width: 0px;"/>
  <rect x="9" y="10" width="8" height="2" rx="1" ry="1" style="fill: #fff; stroke-width: 0px;"/>
</svg>