<svg width="128" height="128" viewBox="0 0 128 128" fill="none" xmlns="http://www.w3.org/2000/svg">
<path d="M7.276 7.276H120.724V120.725H7.276V7.276Z" fill="#F0DB4F"/>
<path d="M111.439 93.667C110.608 88.4914 107.234 84.1441 97.2367 80.0904C93.764 78.4945 89.8925 77.3518 88.7388 74.72C88.3292 73.1884 88.2748 72.3257 88.534 71.3986C89.278 68.3899 92.8695 67.4519 95.716 68.3146C97.5494 68.9291 99.2848 70.3419 100.332 72.5958C105.227 69.4257 105.217 69.4465 108.636 67.2679C107.384 65.3276 106.716 64.4323 105.897 63.6021C102.952 60.3134 98.9405 58.6196 92.5242 58.7492L89.182 59.1814C85.9793 59.9907 82.927 61.6718 81.1372 63.9257C75.7668 70.0193 77.2983 80.684 83.8333 85.073C90.2713 89.9051 99.7289 91.0044 100.937 95.523C102.112 101.055 96.8715 102.845 91.6624 102.209C87.8235 101.411 85.6884 99.4597 83.3802 95.9118C79.1317 98.3704 79.1317 98.3704 74.7635 100.883C75.7994 103.147 76.8878 104.172 78.6242 106.134C86.842 114.47 107.407 114.06 111.095 101.444C111.245 101.01 112.238 98.1212 111.439 93.667V93.667ZM68.9499 59.4171H58.3387L58.2952 86.8511C58.2952 92.6855 58.5969 98.0342 57.6481 99.6736C56.0957 102.898 52.0729 102.498 50.2395 101.873C48.3735 100.956 47.4247 99.6519 46.3254 97.8085C46.0236 97.2793 45.7971 96.8697 45.7209 96.8379L37.0934 102.121C38.528 105.066 40.6414 107.621 43.3484 109.282C47.3921 111.709 52.8269 112.453 58.5109 111.148C62.2102 110.07 65.402 107.838 67.0731 104.44C69.4892 99.9863 68.9708 94.595 68.949 88.6319C69.0034 78.9033 68.9499 69.1765 68.9499 59.4171V59.4171Z" fill="#323330"/>
</svg>
