<?xml version="1.0" encoding="UTF-8"?>
<svg id="logo" xmlns="http://www.w3.org/2000/svg" viewBox="0 0 32 32">
  <path d="M1,1v30h30V1H1ZM16.81,26.69c-.44.9-1.29,1.49-2.26,1.77-1.5.35-2.94.15-4.01-.49-.72-.44-1.27-1.11-1.65-1.89l2.28-1.4s.08.12.16.26c.29.49.54.83,1.04,1.07.48.17,1.55.27,1.96-.58.25-.43.17-1.85.17-3.39v-7.25h2.82c0,2.58.01,5.15,0,7.73,0,1.58.14,3-.5,4.18ZM28.45,25.9c-.98,3.34-6.41,3.44-8.59,1.24-.46-.52-.75-.79-1.02-1.39q1.16-.66,2.28-1.31c.61.94,1.17,1.45,2.19,1.67,1.38.17,2.76-.31,2.45-1.77-.32-1.19-2.82-1.49-4.52-2.76-1.73-1.16-2.13-3.98-.71-5.59.47-.6,1.28-1.04,2.13-1.25l.88-.11c1.7-.03,2.76.41,3.54,1.28.22.22.39.46.72.97-.9.58-.9.57-2.2,1.41-.28-.6-.74-.97-1.22-1.13-.75-.23-1.7.02-1.9.82-.07.25-.05.47.05.88.31.7,1.33,1,2.25,1.42,2.64,1.07,3.54,2.22,3.76,3.59.21,1.18-.05,1.94-.09,2.06Z" style="fill: var(--ifm-color-primary); stroke-width: 0px;"/>
</svg>