<?xml version="1.0" encoding="UTF-8"?>
<svg id="logo" xmlns="http://www.w3.org/2000/svg" viewBox="0 0 32 32">
  <rect y="0" width="32" height="32" rx="3.12" ry="3.12" style="fill: var(--ifm-color-primary); stroke-width: 0px;"/>
  <path d="M19.81,25.46v3.13c.51.26,1.11.46,1.8.59s1.43.2,2.2.2,1.46-.07,2.14-.22c.67-.14,1.27-.38,1.78-.71.51-.33.91-.76,1.21-1.29s.45-1.19.45-1.97c0-.57-.08-1.06-.25-1.49s-.41-.81-.73-1.14c-.32-.33-.7-.63-1.15-.89s-.95-.51-1.51-.75c-.41-.17-.78-.33-1.11-.49-.33-.16-.6-.32-.83-.49-.23-.17-.4-.34-.53-.53-.12-.19-.19-.4-.19-.63,0-.22.06-.41.17-.58s.27-.32.47-.44c.2-.12.45-.22.74-.29.29-.07.62-.1.98-.1.26,0,.54.02.83.06.29.04.58.1.88.18.29.08.58.18.86.31.28.12.53.27.77.43v-2.92c-.48-.18-1-.32-1.56-.41s-1.21-.13-1.94-.13-1.45.08-2.11.24-1.25.41-1.76.75c-.51.34-.9.77-1.2,1.3-.29.52-.44,1.15-.44,1.88,0,.93.27,1.73.81,2.39.54.66,1.35,1.22,2.45,1.67.43.18.83.35,1.2.52s.69.35.96.53c.27.18.48.38.64.6.16.22.23.46.23.73,0,.2-.05.39-.15.56s-.25.32-.45.45-.45.23-.74.3c-.3.07-.64.11-1.04.11-.68,0-1.35-.12-2.01-.36-.67-.24-1.28-.59-1.85-1.07h0ZM14.55,17.76h4.01v-2.57H7.38v2.57h3.99v11.43h3.18v-11.43Z" style="fill: #fff; fill-rule: evenodd; stroke-width: 0px;"/>
</svg>