<?xml version="1.0" encoding="UTF-8"?>
<svg id="logo" xmlns="http://www.w3.org/2000/svg" viewBox="0 0 32 32">
  <defs>
    <style>
      .cls-1 {
        fill: var(--ifm-color-primary);
        stroke-width: 0px;
      }
    </style>
  </defs>
  <path class="cls-1" d="M31.4,14.57L17.42.6c-.8-.8-2.11-.8-2.91,0l-2.9,2.9,3.68,3.68c.86-.29,1.84-.1,2.52.59.69.69.88,1.67.58,2.53l3.55,3.55c.86-.3,1.85-.1,2.53.58.96.96.96,2.51,0,3.47-.23.23-.5.41-.8.53-.3.12-.62.19-.94.19s-.64-.06-.94-.19c-.3-.12-.57-.3-.8-.53-.34-.34-.58-.78-.67-1.25-.09-.47-.05-.97.14-1.41l-3.31-3.31v8.71c.24.12.46.27.65.46.96.96.96,2.51,0,3.47-.96.96-2.51.96-3.47,0-.96-.96-.96-2.51,0-3.47.23-.23.5-.41.8-.53v-8.79c-.3-.12-.57-.3-.8-.54-.73-.73-.9-1.79-.53-2.68l-3.63-3.63L.6,14.51c-.39.39-.6.91-.6,1.46s.22,1.07.6,1.46l13.97,13.97c.8.8,2.11.8,2.91,0l13.91-13.91c.39-.39.6-.91.6-1.46,0-.55-.22-1.07-.6-1.46h0Z"/>
</svg>